<svg width="77" height="69" viewBox="0 0 77 69" fill="none" xmlns="http://www.w3.org/2000/svg">
<path d="M27.357 53.1156L20.4246 67.0075L13.6136 53.0557L27.357 53.1156Z" fill="#333333" stroke="#333333"/>
<rect x="2.5" y="1.5" width="74" height="53.5455" rx="13.5" fill="#333333" stroke="#333333"/>
<line x1="21.0908" y1="18.2266" x2="63.3635" y2="18.2266" stroke="#333333"/>
<line x1="30.6362" y1="34.5918" x2="63.3635" y2="34.5918" stroke="#333333"/>
<line x1="40.1816" y1="26.4082" x2="63.3635" y2="26.4082" stroke="#333333"/>
<rect x="15.6362" y="51.4551" width="9.54545" height="4.09091" fill="#333333"/>
<path d="M25.357 52.1156L18.4246 66.0075L11.6136 52.0557L25.357 52.1156Z" fill="#BED38E" stroke="#333333"/>
<rect x="0.5" y="0.5" width="74" height="53.5455" rx="13.5" fill="#BED38E" stroke="#333333"/>
<rect x="13.6362" y="50.4551" width="9.54545" height="4.09091" fill="#BED38E"/>
<path d="M37 15.4966H37V15.5L37 21.75L37 21.7534C37.0017 22.0066 37.0357 22.2574 37.1003 22.5H26.875C26.5103 22.5 26.1606 22.3551 25.9027 22.0973C25.6449 21.8394 25.5 21.4897 25.5 21.125V19.5001C25.5 19.5001 25.5 19.5 25.5 19.5C25.5003 18.2403 26.0009 17.0323 26.8916 16.1416C27.7823 15.2509 28.9903 14.7503 30.25 14.75C30.25 14.75 30.2501 14.75 30.2501 14.75H30.7946C31.725 15.1619 32.7317 15.375 33.75 15.375C34.7683 15.375 35.775 15.1619 36.7054 14.75H37.1008C37.0358 14.9926 37.0017 15.2435 37 15.4966ZM47 14.25V14.75H47.5H48.75C48.9489 14.75 49.1397 14.829 49.2803 14.9697C49.421 15.1103 49.5 15.3011 49.5 15.5V21.75C49.5 21.9489 49.421 22.1397 49.2803 22.2803C49.1397 22.421 48.9489 22.5 48.75 22.5H40C39.8011 22.5 39.6103 22.421 39.4697 22.2803C39.329 22.1397 39.25 21.9489 39.25 21.75V15.5C39.25 15.3011 39.329 15.1103 39.4697 14.9697C39.6103 14.829 39.8011 14.75 40 14.75H41.25H41.75V14.25V11.125C41.75 10.4288 42.0266 9.76113 42.5188 9.26885C43.0111 8.77656 43.6788 8.5 44.375 8.5C45.0712 8.5 45.7389 8.77656 46.2312 9.26885C46.7234 9.76113 47 10.4288 47 11.125V14.25ZM45.625 14.75H46.125V14.25V11.125C46.125 10.6609 45.9406 10.2158 45.6124 9.88757C45.2842 9.55938 44.8391 9.375 44.375 9.375C43.9109 9.375 43.4657 9.55938 43.1376 9.88757C42.8094 10.2158 42.625 10.6609 42.625 11.125V14.25V14.75H43.125H45.625ZM42.7582 19.2947L43.2201 19.1034L42.7582 19.2947C42.8907 19.6145 43.115 19.8878 43.4028 20.0801C43.6905 20.2724 44.0289 20.375 44.375 20.375C44.8391 20.375 45.2842 20.1906 45.6124 19.8624C45.9406 19.5343 46.125 19.0891 46.125 18.625C46.125 18.2789 46.0224 17.9405 45.8301 17.6528C45.6378 17.365 45.3645 17.1407 45.0447 17.0082C44.7249 16.8758 44.3731 16.8411 44.0336 16.9086C43.6941 16.9762 43.3823 17.1428 43.1376 17.3876C42.8928 17.6323 42.7262 17.9441 42.6586 18.2836C42.5911 18.6231 42.6258 18.9749 42.7582 19.2947ZM36.2501 11.7416C35.51 12.2361 34.64 12.5 33.75 12.5C32.5565 12.5 31.4119 12.0259 30.568 11.182C29.7241 10.3381 29.25 9.19348 29.25 8C29.25 7.10999 29.5139 6.23996 30.0084 5.49994C30.5029 4.75991 31.2057 4.18314 32.0279 3.84254C32.8502 3.50195 33.755 3.41284 34.6279 3.58647C35.5008 3.7601 36.3026 4.18869 36.932 4.81802C37.5613 5.44736 37.9899 6.24918 38.1635 7.1221C38.3372 7.99501 38.2481 8.89981 37.9075 9.72208C37.5669 10.5443 36.9901 11.2471 36.2501 11.7416Z" fill="#333333" stroke="#333333"/>
<line x1="14" y1="30.5" x2="61" y2="30.5" stroke="#333333"/>
<line x1="25" y1="45.5" x2="61" y2="45.5" stroke="#333333"/>
<line x1="33" y1="37.5" x2="61" y2="37.5" stroke="#333333"/>
</svg>
