<svg width="26" height="23" viewBox="0 0 26 23" fill="none" xmlns="http://www.w3.org/2000/svg">
<path d="M2.51312 2.19831H2.32812V2.38331V16.6831V16.8681H2.51312H12.3806V18.8814H2.51312C1.21994 18.8814 0.185 17.8862 0.185 16.6831V2.38331C0.185 1.18021 1.21994 0.185 2.51312 0.185H18.8484C20.1415 0.185 21.1765 1.18021 21.1765 2.38331V10.5399H19.0334V2.38331V2.19831H18.8484H2.51312Z" fill="#333333" stroke="#F9F9F9" stroke-width="0.37"/>
<path d="M17.1147 13.8862H4.27384L7.56042 9.86178L8.66458 11.8898L8.79621 12.1316L8.97035 11.9184L12.5258 7.56475L17.1147 13.8862Z" fill="#333333" stroke="#F9F9F9" stroke-width="0.37"/>
<path d="M18.8734 16.7538H19.0584V16.5688V13.3491H21.2372V16.5688V16.7538H21.4222H25.0604V18.6536H21.4222H21.2372V18.8386V22.0583H19.0584V18.8386V18.6536H18.8734H15.2351V16.7538H18.8734Z" fill="#333333" stroke="#F9F9F9" stroke-width="0.37"/>
</svg>
