<svg width="59" height="39" viewBox="0 0 59 39" fill="none" xmlns="http://www.w3.org/2000/svg">
<path d="M1 37.338L16.5246 32.2506L30.3191 37.338L44.1229 32.2506L57.6756 37.338V12.0873L44.1229 7L30.3191 12.0873L16.5246 7L1 12.0873V37.338Z" fill="#333333" stroke="#FFD4B7" stroke-miterlimit="10"/>
<path d="M30.1981 12.5391V37.8091" stroke="#FFD4B7" stroke-miterlimit="10"/>
<path d="M16.5991 7.4707V32.7222" stroke="#FFD4B7" stroke-miterlimit="10"/>
<path d="M44.2439 7.4707V32.7222" stroke="#FFD4B7" stroke-miterlimit="10"/>
<path d="M30.1619 26.9731L26.7305 19.1919L26.7303 19.1914L23.5304 11.9554L23.5178 11.9271L23.502 11.9006C22.797 10.7243 22.4231 9.37945 22.4196 8.00826C22.4894 5.995 23.3378 4.08719 24.7863 2.68664C26.2369 1.28407 28.1758 0.5 30.1938 0.5C32.2118 0.5 34.1507 1.28407 35.6013 2.68664C37.0494 4.08671 37.8976 5.99369 37.9679 8.00618C37.9524 9.40853 37.5476 10.7791 36.7987 11.9651L36.779 11.9964L36.7641 12.0302L33.6202 19.1542L33.62 19.1545L30.1619 26.9731ZM30.1638 2.86846L30.1625 2.86846C29.6241 2.86707 29.0907 2.97172 28.5928 3.17644C28.0948 3.38116 27.6421 3.68194 27.2604 4.06162C26.8787 4.4413 26.5755 4.89243 26.3682 5.38926C26.1609 5.8861 26.0534 6.4189 26.052 6.95725V6.95854C26.0521 7.7666 26.2915 8.55653 26.74 9.22868C27.1886 9.90082 27.8262 10.4251 28.5724 10.7352C29.3186 11.0454 30.14 11.1276 30.9329 10.9715C31.7258 10.8154 32.4547 10.428 33.0276 9.8581C33.6005 9.28822 33.9918 8.56142 34.152 7.7694C34.3123 6.97739 34.2343 6.15567 33.9279 5.40794C33.6215 4.66021 33.1005 4.01998 32.4306 3.56803C31.7607 3.11607 30.972 2.87265 30.1638 2.86846Z" fill="#333333" stroke="#FFD4B7"/>
</svg>
