<svg width="31" height="23" viewBox="0 0 31 23" fill="none" xmlns="http://www.w3.org/2000/svg">
<path d="M16.0577 1C14.4135 1.22439 12.9113 2.06527 11.8462 3.35745C10.5641 4.9725 10.2885 7.04342 9.92308 9.69392C9.61539 11.9667 9.73718 13.2106 8.96154 15.3792C8.48077 16.7272 8.01923 17.5152 7.41667 17.9385C6.6712 18.4105 5.85492 18.7559 5 18.9609L27 19C26.1437 18.78 25.3277 18.4216 24.5833 17.9385C23.9872 17.5152 23.5192 16.7272 23.0385 15.3792C22.2628 13.2106 22.3974 11.9667 22.0769 9.69392C21.7179 7.04342 21.4359 4.9725 20.1538 3.35745C19.0919 2.06809 17.5948 1.22748 15.9551 1" fill="#F6EAE9"/>
<path d="M16.0577 1C14.4135 1.22439 12.9113 2.06527 11.8462 3.35745C10.5641 4.9725 10.2885 7.04341 9.92308 9.69392C9.61538 11.9667 9.73718 13.2106 8.96154 15.3792C8.48077 16.7272 8.01923 17.5152 7.41667 17.9385C6.6712 18.4105 5.85492 18.7559 5 18.9609L27 19C26.1437 18.78 25.3277 18.4216 24.5833 17.9385C23.9872 17.5152 23.5192 16.7272 23.0385 15.3792C22.2628 13.2106 22.3974 11.9667 22.0769 9.69392C21.7179 7.04341 21.4359 4.9725 20.1538 3.35745C19.0919 2.06809 17.5948 1.22748 15.9551 1" stroke="#333333" stroke-miterlimit="10"/>
<path d="M18.9966 19C19.0354 19.7581 18.7417 20.4993 18.1797 21.0615C17.6176 21.6236 16.8329 21.9611 15.9973 22C15.1621 21.9611 14.378 21.6235 13.8168 21.0611C13.2557 20.4988 12.9633 19.7576 13.0037 19" fill="#F6EAE9"/>
<path d="M18.9966 19C19.0354 19.7581 18.7417 20.4993 18.1797 21.0615C17.6176 21.6236 16.8329 21.9611 15.9973 22C15.1621 21.9611 14.378 21.6235 13.8168 21.0611C13.2557 20.4988 12.9633 19.7576 13.0037 19" stroke="#333333" stroke-miterlimit="10"/>
</svg>
