<svg width="77" height="69" viewBox="0 0 77 69" fill="none" xmlns="http://www.w3.org/2000/svg">
<path d="M27.3571 53.1156L20.4247 67.0075L13.6137 53.0557L27.3571 53.1156Z" fill="#333333" stroke="#333333"/>
<rect x="2.5" y="1.5" width="74" height="53.5455" rx="13.5" fill="#333333" stroke="#333333"/>
<line x1="21.0909" y1="18.2266" x2="63.3637" y2="18.2266" stroke="#333333"/>
<line x1="30.6364" y1="34.5918" x2="63.3636" y2="34.5918" stroke="#333333"/>
<line x1="40.1818" y1="26.4082" x2="63.3636" y2="26.4082" stroke="#333333"/>
<rect x="15.6364" y="51.4551" width="9.54545" height="4.09091" fill="#333333"/>
<path d="M25.3571 52.1156L18.4247 66.0075L11.6137 52.0557L25.3571 52.1156Z" fill="#BED38E" stroke="#333333"/>
<rect x="0.5" y="0.5" width="74" height="53.5455" rx="13.5" fill="#BED38E" stroke="#333333"/>
<line x1="19.0909" y1="17.2266" x2="61.3637" y2="17.2266" stroke="#333333"/>
<line x1="28.6364" y1="33.5918" x2="61.3636" y2="33.5918" stroke="#333333"/>
<line x1="38.1818" y1="25.4082" x2="61.3636" y2="25.4082" stroke="#333333"/>
<rect x="13.6364" y="50.4551" width="9.54545" height="4.09091" fill="#BED38E"/>
</svg>
