<svg width="9" height="18" viewBox="0 0 9 18" fill="none" xmlns="http://www.w3.org/2000/svg">
<path d="M7.83958 0.21337L0.209025 8.45723C0.0750057 8.60203 0 8.79624 0 8.99845C0 9.20066 0.0750057 9.39487 0.209025 9.53967L7.83958 17.7866C7.90201 17.8542 7.97665 17.9078 8.0591 17.9445C8.14155 17.9811 8.23013 18 8.31962 18C8.40911 18 8.49769 17.9811 8.58014 17.9445C8.66259 17.9078 8.73723 17.8542 8.79966 17.7866C8.9281 17.6482 9 17.4623 9 17.2687C9 17.0751 8.9281 16.8892 8.79966 16.7507L1.62411 8.99845L8.79966 1.24773C8.92766 1.10932 8.99928 0.923752 8.99928 0.73055C8.99928 0.537347 8.92766 0.351779 8.79966 0.21337C8.73723 0.145844 8.66259 0.0921741 8.58014 0.0555273C8.49769 0.0188806 8.40911 0 8.31962 0C8.23013 0 8.14155 0.0188806 8.0591 0.0555273C7.97665 0.0921741 7.90201 0.145844 7.83958 0.21337Z" fill="#333333"/>
</svg>
