<svg width="34" height="24" viewBox="0 0 34 24" fill="none" xmlns="http://www.w3.org/2000/svg">
<path d="M17.0629 1C15.2692 1.23507 13.6305 2.11599 12.4685 3.46971C11.0699 5.16167 10.7692 7.3312 10.3706 10.1079C10.035 12.4889 10.1678 13.792 9.32168 16.0639C8.7972 17.4761 8.29371 18.3016 7.63636 18.7451C6.82312 19.2396 5.93264 19.6014 5 19.8162L29 19.8571C28.0658 19.6266 27.1757 19.2512 26.3636 18.7451C25.7133 18.3016 25.2028 17.4761 24.6783 16.0639C23.8322 13.792 23.979 12.4889 23.6294 10.1079C23.2378 7.3312 22.9301 5.16167 21.5315 3.46971C20.373 2.11895 18.7397 1.23831 16.951 1" fill="#FFD4B7"/>
<path d="M17.0629 1C15.2692 1.23507 13.6305 2.11599 12.4685 3.46971C11.0699 5.16167 10.7692 7.3312 10.3706 10.1079C10.035 12.4889 10.1678 13.792 9.32168 16.0639C8.7972 17.4761 8.29371 18.3016 7.63636 18.7451C6.82312 19.2396 5.93264 19.6014 5 19.8162L29 19.8571C28.0658 19.6266 27.1757 19.2512 26.3636 18.7451C25.7133 18.3016 25.2028 17.4761 24.6783 16.0639C23.8322 13.792 23.979 12.4889 23.6294 10.1079C23.2378 7.3312 22.9301 5.16167 21.5315 3.46971C20.373 2.11895 18.7397 1.23831 16.951 1" stroke="#333333" stroke-miterlimit="10"/>
<path d="M20.269 19.8574C20.3114 20.6516 19.991 21.4281 19.3778 22.017C18.7647 22.606 17.9087 22.9595 16.9971 23.0003C16.086 22.9595 15.2306 22.6058 14.6184 22.0167C14.0062 21.4276 13.6872 20.6511 13.7313 19.8574" fill="#FFD4B7"/>
<path d="M20.269 19.8574C20.3114 20.6516 19.991 21.4281 19.3778 22.017C18.7647 22.606 17.9087 22.9595 16.9971 23.0003C16.086 22.9595 15.2306 22.6058 14.6184 22.0167C14.0062 21.4276 13.6872 20.6511 13.7313 19.8574" stroke="#333333" stroke-miterlimit="10"/>
</svg>
