<svg width="27" height="25" viewBox="0 0 27 25" fill="none" xmlns="http://www.w3.org/2000/svg">
<path d="M13.6899 12.1034C16.756 12.1034 19.2416 9.6178 19.2416 6.55169C19.2416 3.48558 16.756 1 13.6899 1C10.6238 1 8.13818 3.48558 8.13818 6.55169C8.13818 9.6178 10.6238 12.1034 13.6899 12.1034Z" fill="#FFD4B7" stroke="#333333" stroke-miterlimit="10"/>
<path d="M4.25469 13.6895H22.3382C23.1996 13.6895 24.0257 14.035 24.6348 14.6499C25.2439 15.2649 25.5861 16.099 25.5861 16.9688V23.9997H1.00006V16.9893C0.997377 16.5564 1.07963 16.1272 1.24207 15.7265C1.40451 15.3258 1.64393 14.9615 1.9465 14.6548C2.24908 14.348 2.60883 14.1047 3.00499 13.9391C3.40115 13.7734 3.82589 13.6885 4.25469 13.6895Z" fill="#FFD4B7" stroke="#333333" stroke-miterlimit="10"/>
</svg>
