<svg width="9" height="18" viewBox="0 0 9 18" fill="none" xmlns="http://www.w3.org/2000/svg">
<path d="M1.16042 17.7866L8.79098 9.54277C8.92499 9.39797 9 9.20376 9 9.00155C9 8.79934 8.92499 8.60513 8.79098 8.46033L1.16042 0.213369C1.09799 0.145844 1.02335 0.0921726 0.940901 0.0555267C0.858453 0.0188789 0.76987 0 0.680379 0C0.590889 0 0.502305 0.0188789 0.419857 0.0555267C0.337409 0.0921726 0.262769 0.145844 0.20034 0.213369C0.0719042 0.351849 0 0.537746 0 0.731325C0 0.924902 0.0719042 1.1108 0.20034 1.24928L7.37589 9.00155L0.20034 16.7523C0.0723448 16.8907 0.00071907 17.0762 0.00071907 17.2695C0.00071907 17.4627 0.0723448 17.6482 0.20034 17.7866C0.262769 17.8542 0.337409 17.9078 0.419857 17.9445C0.502305 17.9811 0.590889 18 0.680379 18C0.76987 18 0.858453 17.9811 0.940901 17.9445C1.02335 17.9078 1.09799 17.8542 1.16042 17.7866Z" fill="#333333"/>
</svg>
